<?xml version="1.0" encoding="UTF-8" ?>
<!DOCTYPE svg PUBLIC "-//W3C//DTD SVG 1.1//EN" "http://www.w3.org/Graphics/SVG/1.1/DTD/svg11.dtd">
<svg width="750pt" height="750pt" viewBox="0 0 750 750" version="1.1" xmlns="http://www.w3.org/2000/svg">
<g id="#fffbf3ff">
<path fill="#fffbf3" opacity="1.00" d=" M 124.54 39.79 C 142.08 37.23 160.51 40.96 175.50 50.47 C 189.04 58.89 199.76 71.73 205.65 86.55 C 212.69 104.06 212.78 124.25 205.89 141.83 C 200.33 156.20 190.24 168.77 177.41 177.30 C 163.58 186.62 146.58 191.06 129.96 189.79 C 115.61 188.81 101.61 183.51 90.14 174.84 C 76.20 164.43 66.08 149.03 62.07 132.11 C 57.98 115.09 59.99 96.65 67.84 80.99 C 78.53 59.10 100.39 43.13 124.54 39.79 Z" />
<path fill="#fffbf3" opacity="1.00" d=" M 609.59 572.78 C 627.11 570.23 645.52 573.97 660.50 583.47 C 674.03 591.89 684.75 604.72 690.64 619.53 C 696.64 634.45 697.61 651.32 693.49 666.86 C 689.20 683.14 679.27 697.86 665.77 707.91 C 653.52 717.16 638.37 722.51 623.03 722.95 C 606.69 723.57 590.21 718.62 576.90 709.13 C 564.48 700.39 554.85 687.79 549.62 673.55 C 542.92 655.48 543.53 634.83 551.34 617.20 C 561.45 593.71 584.23 576.25 609.59 572.78 Z" />
</g>
</svg>
